<svg xmlns="http://www.w3.org/2000/svg" width="80" height="80" viewBox="0 0 80 80">
  <path fill="#303133" fill-rule="evenodd" d="M301,91 C278.90861,91 261,73.09139 261,51 C261,28.90861 278.90861,11 301,11 C323.09139,11 341,28.90861 341,51 C341,73.09139 323.09139,91 301,91 Z M301.5,47 L309,39.5 L309,35.75 L305.25,32 L301.5,32 L297.75,32 L294,35.75 L294,39.5 L301.5,47 Z M287.75,70 L291.5,70 L295.25,66.2325581 L299,70 L299,50.5348837 L291.5,43 L287.75,43 L284,46.7674419 L284,66.2325581 L287.75,70 Z M314.25,70 L318,66.2325581 L318,46.7674419 L314.25,43 L310.5,43 L303,50.5348837 L303,70 L306.75,66.2325581 L310.5,70 L314.25,70 Z" transform="translate(-261 -11)"/>
</svg>
